<mxfile host="app.diagrams.net" modified="2022-01-22T21:42:24.881Z" agent="5.0 (Windows NT 10.0; Win64; x64) AppleWebKit/537.36 (KHTML, like Gecko) Chrome/97.0.4692.71 Safari/537.36" etag="phwllWAbdwvEKPI7OqLO" version="16.4.5" type="github">
  <diagram id="kgpKYQtTHZ0yAKxKKP6v" name="Page-1">
    <mxGraphModel dx="981" dy="486" grid="1" gridSize="10" guides="1" tooltips="1" connect="1" arrows="1" fold="1" page="1" pageScale="1" pageWidth="850" pageHeight="1100" math="0" shadow="0">
      <root>
        <mxCell id="0" />
        <mxCell id="1" parent="0" />
        <mxCell id="tN5C8NhHL724sr-eqqmO-39" value="loop" style="shape=umlFrame;whiteSpace=wrap;html=1;width=50;height=20;" parent="1" vertex="1">
          <mxGeometry x="195" y="290" width="595" height="280" as="geometry" />
        </mxCell>
        <mxCell id="zimsX9Ct094ovm36reo9-3" value="loop" style="shape=umlFrame;whiteSpace=wrap;html=1;width=50;height=20;" parent="1" vertex="1">
          <mxGeometry x="340" y="320" width="440" height="220" as="geometry" />
        </mxCell>
        <mxCell id="zimsX9Ct094ovm36reo9-6" value="loop" style="shape=umlFrame;whiteSpace=wrap;html=1;width=50;height=20;" parent="1" vertex="1">
          <mxGeometry x="450" y="350" width="320" height="160" as="geometry" />
        </mxCell>
        <mxCell id="tN5C8NhHL724sr-eqqmO-1" value=":Uživatel" style="shape=umlLifeline;perimeter=lifelinePerimeter;container=1;collapsible=0;recursiveResize=0;rounded=0;shadow=0;strokeWidth=1;" parent="1" vertex="1">
          <mxGeometry x="120" y="80" width="100" height="620" as="geometry" />
        </mxCell>
        <mxCell id="tN5C8NhHL724sr-eqqmO-2" value="" style="points=[];perimeter=orthogonalPerimeter;rounded=0;shadow=0;strokeWidth=1;" parent="tN5C8NhHL724sr-eqqmO-1" vertex="1">
          <mxGeometry x="45" y="70" width="10" height="530" as="geometry" />
        </mxCell>
        <mxCell id="tN5C8NhHL724sr-eqqmO-3" value="vyhodnotit splnění&#xa;kritérií pokrytí z logů" style="verticalAlign=bottom;startArrow=oval;endArrow=block;startSize=8;shadow=0;strokeWidth=1;labelBackgroundColor=none;" parent="tN5C8NhHL724sr-eqqmO-1" target="tN5C8NhHL724sr-eqqmO-2" edge="1">
          <mxGeometry x="-0.04" relative="1" as="geometry">
            <mxPoint x="-70" y="70" as="sourcePoint" />
            <mxPoint as="offset" />
          </mxGeometry>
        </mxCell>
        <mxCell id="tN5C8NhHL724sr-eqqmO-4" value=":TforcCovCoverage" style="shape=umlLifeline;perimeter=lifelinePerimeter;container=1;collapsible=0;recursiveResize=0;rounded=0;shadow=0;strokeWidth=1;" parent="1" vertex="1">
          <mxGeometry x="230" y="80" width="120" height="620" as="geometry" />
        </mxCell>
        <mxCell id="tN5C8NhHL724sr-eqqmO-5" value="" style="points=[];perimeter=orthogonalPerimeter;rounded=0;shadow=0;strokeWidth=1;" parent="tN5C8NhHL724sr-eqqmO-4" vertex="1">
          <mxGeometry x="55" y="80" width="10" height="520" as="geometry" />
        </mxCell>
        <mxCell id="tN5C8NhHL724sr-eqqmO-32" value="get_coverages" style="edgeStyle=orthogonalEdgeStyle;rounded=0;orthogonalLoop=1;jettySize=auto;html=1;" parent="tN5C8NhHL724sr-eqqmO-4" source="tN5C8NhHL724sr-eqqmO-5" target="tN5C8NhHL724sr-eqqmO-33" edge="1">
          <mxGeometry x="0.0769" y="40" relative="1" as="geometry">
            <mxPoint x="210" y="215" as="targetPoint" />
            <Array as="points">
              <mxPoint x="90" y="180" />
              <mxPoint x="90" y="200" />
              <mxPoint x="65" y="200" />
            </Array>
            <mxPoint as="offset" />
          </mxGeometry>
        </mxCell>
        <mxCell id="tN5C8NhHL724sr-eqqmO-33" value="" style="points=[];perimeter=orthogonalPerimeter;rounded=0;shadow=0;strokeWidth=1;" parent="tN5C8NhHL724sr-eqqmO-4" vertex="1">
          <mxGeometry x="60" y="200" width="10" height="310" as="geometry" />
        </mxCell>
        <mxCell id="tN5C8NhHL724sr-eqqmO-57" value="dict" style="edgeStyle=orthogonalEdgeStyle;rounded=0;orthogonalLoop=1;jettySize=auto;html=1;dashed=1;" parent="tN5C8NhHL724sr-eqqmO-4" source="tN5C8NhHL724sr-eqqmO-33" target="tN5C8NhHL724sr-eqqmO-5" edge="1">
          <mxGeometry x="-0.0768" y="20" relative="1" as="geometry">
            <Array as="points">
              <mxPoint x="90" y="510" />
              <mxPoint x="90" y="530" />
            </Array>
            <mxPoint as="offset" />
          </mxGeometry>
        </mxCell>
        <mxCell id="tN5C8NhHL724sr-eqqmO-7" value="tforcov coverage" style="verticalAlign=bottom;endArrow=block;entryX=0;entryY=0;shadow=0;strokeWidth=1;" parent="1" source="tN5C8NhHL724sr-eqqmO-2" target="tN5C8NhHL724sr-eqqmO-5" edge="1">
          <mxGeometry relative="1" as="geometry">
            <mxPoint x="275" y="160" as="sourcePoint" />
            <mxPoint as="offset" />
          </mxGeometry>
        </mxCell>
        <mxCell id="tN5C8NhHL724sr-eqqmO-9" value="coverage report" style="verticalAlign=bottom;endArrow=open;dashed=1;endSize=8;shadow=0;strokeWidth=1;" parent="1" source="tN5C8NhHL724sr-eqqmO-5" target="tN5C8NhHL724sr-eqqmO-2" edge="1">
          <mxGeometry relative="1" as="geometry">
            <mxPoint x="185" y="190" as="targetPoint" />
            <mxPoint x="230" y="430" as="sourcePoint" />
            <Array as="points">
              <mxPoint x="260" y="680" />
            </Array>
          </mxGeometry>
        </mxCell>
        <mxCell id="tN5C8NhHL724sr-eqqmO-34" value=":Module" style="shape=umlLifeline;perimeter=lifelinePerimeter;container=1;collapsible=0;recursiveResize=0;rounded=0;shadow=0;strokeWidth=1;" parent="1" vertex="1">
          <mxGeometry x="360" y="80" width="100" height="620" as="geometry" />
        </mxCell>
        <mxCell id="tN5C8NhHL724sr-eqqmO-35" value="" style="points=[];perimeter=orthogonalPerimeter;rounded=0;shadow=0;strokeWidth=1;" parent="tN5C8NhHL724sr-eqqmO-34" vertex="1">
          <mxGeometry x="45" y="230" width="10" height="250" as="geometry" />
        </mxCell>
        <mxCell id="gGgN93QRHOWnVbleVQWU-1" value="ref" style="shape=umlFrame;whiteSpace=wrap;html=1;width=50;height=20;swimlaneFillColor=default;" parent="1" vertex="1">
          <mxGeometry x="290" y="210" width="200" height="30" as="geometry" />
        </mxCell>
        <mxCell id="tN5C8NhHL724sr-eqqmO-38" value="get_coverages" style="edgeStyle=orthogonalEdgeStyle;rounded=0;orthogonalLoop=1;jettySize=auto;html=1;" parent="1" source="tN5C8NhHL724sr-eqqmO-33" target="tN5C8NhHL724sr-eqqmO-35" edge="1">
          <mxGeometry x="-0.0476" y="10" relative="1" as="geometry">
            <Array as="points">
              <mxPoint x="360" y="310" />
              <mxPoint x="360" y="310" />
            </Array>
            <mxPoint as="offset" />
          </mxGeometry>
        </mxCell>
        <mxCell id="tN5C8NhHL724sr-eqqmO-40" value=":Function" style="shape=umlLifeline;perimeter=lifelinePerimeter;container=1;collapsible=0;recursiveResize=0;rounded=0;shadow=0;strokeWidth=1;" parent="1" vertex="1">
          <mxGeometry x="470" y="80" width="100" height="620" as="geometry" />
        </mxCell>
        <mxCell id="tN5C8NhHL724sr-eqqmO-41" value="" style="points=[];perimeter=orthogonalPerimeter;rounded=0;shadow=0;strokeWidth=1;" parent="tN5C8NhHL724sr-eqqmO-40" vertex="1">
          <mxGeometry x="45" y="260" width="10" height="190" as="geometry" />
        </mxCell>
        <mxCell id="tN5C8NhHL724sr-eqqmO-45" value="get_coverages" style="edgeStyle=orthogonalEdgeStyle;rounded=0;orthogonalLoop=1;jettySize=auto;html=1;" parent="1" source="tN5C8NhHL724sr-eqqmO-35" target="tN5C8NhHL724sr-eqqmO-41" edge="1">
          <mxGeometry x="-0.0994" y="10" relative="1" as="geometry">
            <Array as="points">
              <mxPoint x="470" y="340" />
              <mxPoint x="470" y="340" />
            </Array>
            <mxPoint as="offset" />
          </mxGeometry>
        </mxCell>
        <mxCell id="fTopDFvXIOGjMvco2JUw-1" value="ref" style="shape=umlFrame;whiteSpace=wrap;html=1;width=50;height=20;swimlaneFillColor=default;" parent="1" vertex="1">
          <mxGeometry x="290" y="170" width="200" height="30" as="geometry" />
        </mxCell>
        <mxCell id="fTopDFvXIOGjMvco2JUw-3" value="Načíst CFG" style="text;html=1;resizable=0;autosize=1;align=center;verticalAlign=middle;points=[];fillColor=none;strokeColor=none;rounded=0;" parent="1" vertex="1">
          <mxGeometry x="340" y="175" width="80" height="20" as="geometry" />
        </mxCell>
        <mxCell id="gGgN93QRHOWnVbleVQWU-2" value="Načíst logy" style="text;html=1;resizable=0;autosize=1;align=center;verticalAlign=middle;points=[];fillColor=none;strokeColor=none;rounded=0;" parent="1" vertex="1">
          <mxGeometry x="345" y="215" width="70" height="20" as="geometry" />
        </mxCell>
        <mxCell id="gGgN93QRHOWnVbleVQWU-3" value="&lt;&lt;subclass of&gt;&gt;&#xa;:Coverage" style="shape=umlLifeline;perimeter=lifelinePerimeter;container=1;collapsible=0;recursiveResize=0;rounded=0;shadow=0;strokeWidth=1;" parent="1" vertex="1">
          <mxGeometry x="580" y="80" width="100" height="620" as="geometry" />
        </mxCell>
        <mxCell id="gGgN93QRHOWnVbleVQWU-4" value="" style="points=[];perimeter=orthogonalPerimeter;rounded=0;shadow=0;strokeWidth=1;" parent="gGgN93QRHOWnVbleVQWU-3" vertex="1">
          <mxGeometry x="45" y="290" width="10" height="130" as="geometry" />
        </mxCell>
        <mxCell id="zimsX9Ct094ovm36reo9-4" value=":BasicBlock" style="shape=umlLifeline;perimeter=lifelinePerimeter;container=1;collapsible=0;recursiveResize=0;rounded=0;shadow=0;strokeWidth=1;" parent="1" vertex="1">
          <mxGeometry x="690" y="80" width="100" height="620" as="geometry" />
        </mxCell>
        <mxCell id="zimsX9Ct094ovm36reo9-7" value="get_coverage" style="edgeStyle=orthogonalEdgeStyle;rounded=0;orthogonalLoop=1;jettySize=auto;html=1;" parent="1" source="tN5C8NhHL724sr-eqqmO-41" target="gGgN93QRHOWnVbleVQWU-4" edge="1">
          <mxGeometry x="-0.0994" y="10" relative="1" as="geometry">
            <Array as="points">
              <mxPoint x="590" y="370" />
              <mxPoint x="590" y="370" />
            </Array>
            <mxPoint as="offset" />
            <mxPoint x="425" y="380.0000000000001" as="sourcePoint" />
            <mxPoint x="890" y="230" as="targetPoint" />
          </mxGeometry>
        </mxCell>
        <mxCell id="zimsX9Ct094ovm36reo9-9" value="get_basic_blocks" style="edgeStyle=orthogonalEdgeStyle;rounded=0;orthogonalLoop=1;jettySize=auto;html=1;" parent="1" source="gGgN93QRHOWnVbleVQWU-4" target="0RVh42D0NzvZq4bl3OUi-3" edge="1">
          <mxGeometry x="-0.0526" y="-10" relative="1" as="geometry">
            <Array as="points">
              <mxPoint x="580" y="390" />
              <mxPoint x="580" y="390" />
            </Array>
            <mxPoint as="offset" />
          </mxGeometry>
        </mxCell>
        <mxCell id="zimsX9Ct094ovm36reo9-10" value="get_paths" style="edgeStyle=orthogonalEdgeStyle;rounded=0;orthogonalLoop=1;jettySize=auto;html=1;" parent="1" source="gGgN93QRHOWnVbleVQWU-4" target="0RVh42D0NzvZq4bl3OUi-4" edge="1">
          <mxGeometry x="-0.1007" y="-10" relative="1" as="geometry">
            <mxPoint x="635" y="430.0000000000001" as="sourcePoint" />
            <mxPoint x="535" y="430.0000000000001" as="targetPoint" />
            <Array as="points">
              <mxPoint x="580" y="420" />
              <mxPoint x="580" y="420" />
            </Array>
            <mxPoint as="offset" />
          </mxGeometry>
        </mxCell>
        <mxCell id="zimsX9Ct094ovm36reo9-11" value="Vyhodnocení pokrytí kódu je specifické pro podtřídu třídy Coverage" style="rounded=0;whiteSpace=wrap;html=1;" parent="1" vertex="1">
          <mxGeometry x="540" y="440" width="220" height="40" as="geometry" />
        </mxCell>
        <mxCell id="fTopDFvXIOGjMvco2JUw-5" value="[TforcCovCoverage.modules]" style="text;html=1;resizable=0;autosize=1;align=center;verticalAlign=middle;points=[];fillColor=none;strokeColor=none;rounded=0;labelBackgroundColor=default;labelBorderColor=none;" parent="1" vertex="1">
          <mxGeometry x="620" y="290" width="170" height="20" as="geometry" />
        </mxCell>
        <mxCell id="zimsX9Ct094ovm36reo9-12" value="[Module.functions]" style="text;html=1;resizable=0;autosize=1;align=center;verticalAlign=middle;points=[];fillColor=none;strokeColor=none;rounded=0;labelBackgroundColor=default;labelBorderColor=none;" parent="1" vertex="1">
          <mxGeometry x="670" y="320" width="110" height="20" as="geometry" />
        </mxCell>
        <mxCell id="zimsX9Ct094ovm36reo9-13" value="[coverages]" style="text;html=1;resizable=0;autosize=1;align=center;verticalAlign=middle;points=[];fillColor=none;strokeColor=none;rounded=0;labelBackgroundColor=default;labelBorderColor=none;" parent="1" vertex="1">
          <mxGeometry x="690" y="350" width="80" height="20" as="geometry" />
        </mxCell>
        <mxCell id="zimsX9Ct094ovm36reo9-14" value="dict" style="edgeStyle=orthogonalEdgeStyle;rounded=0;orthogonalLoop=1;jettySize=auto;html=1;dashed=1;" parent="1" source="gGgN93QRHOWnVbleVQWU-4" target="tN5C8NhHL724sr-eqqmO-41" edge="1">
          <mxGeometry x="0.1" y="-10" relative="1" as="geometry">
            <Array as="points">
              <mxPoint x="610" y="500" />
              <mxPoint x="610" y="500" />
            </Array>
            <mxPoint as="offset" />
            <mxPoint x="525" y="460.0000000000001" as="sourcePoint" />
            <mxPoint x="425" y="460.0000000000001" as="targetPoint" />
          </mxGeometry>
        </mxCell>
        <mxCell id="zimsX9Ct094ovm36reo9-15" value="dict" style="edgeStyle=orthogonalEdgeStyle;rounded=0;orthogonalLoop=1;jettySize=auto;html=1;dashed=1;" parent="1" source="tN5C8NhHL724sr-eqqmO-41" target="tN5C8NhHL724sr-eqqmO-35" edge="1">
          <mxGeometry x="0.1" y="-10" relative="1" as="geometry">
            <Array as="points">
              <mxPoint x="490" y="530" />
              <mxPoint x="490" y="530" />
            </Array>
            <mxPoint as="offset" />
            <mxPoint x="635" y="540" as="sourcePoint" />
            <mxPoint x="535" y="540" as="targetPoint" />
          </mxGeometry>
        </mxCell>
        <mxCell id="zimsX9Ct094ovm36reo9-16" value="dict" style="edgeStyle=orthogonalEdgeStyle;rounded=0;orthogonalLoop=1;jettySize=auto;html=1;dashed=1;" parent="1" source="tN5C8NhHL724sr-eqqmO-35" target="tN5C8NhHL724sr-eqqmO-33" edge="1">
          <mxGeometry x="0.1" y="-10" relative="1" as="geometry">
            <Array as="points">
              <mxPoint x="380" y="560" />
              <mxPoint x="380" y="560" />
            </Array>
            <mxPoint as="offset" />
            <mxPoint x="525" y="570" as="sourcePoint" />
            <mxPoint x="425" y="570" as="targetPoint" />
          </mxGeometry>
        </mxCell>
        <mxCell id="zimsX9Ct094ovm36reo9-17" value="ref" style="shape=umlFrame;whiteSpace=wrap;html=1;width=50;height=20;swimlaneFillColor=default;" parent="1" vertex="1">
          <mxGeometry x="290" y="630" width="200" height="30" as="geometry" />
        </mxCell>
        <mxCell id="zimsX9Ct094ovm36reo9-18" value="Exportovat výstup" style="text;html=1;resizable=0;autosize=1;align=center;verticalAlign=middle;points=[];fillColor=none;strokeColor=none;rounded=0;" parent="1" vertex="1">
          <mxGeometry x="345" y="635" width="110" height="20" as="geometry" />
        </mxCell>
        <mxCell id="0RVh42D0NzvZq4bl3OUi-1" value="" style="edgeStyle=orthogonalEdgeStyle;rounded=0;orthogonalLoop=1;jettySize=auto;html=1;dashed=1;" edge="1" parent="1" source="0RVh42D0NzvZq4bl3OUi-4" target="gGgN93QRHOWnVbleVQWU-4">
          <mxGeometry x="0.1" y="-10" relative="1" as="geometry">
            <Array as="points">
              <mxPoint x="580" y="430" />
              <mxPoint x="580" y="430" />
            </Array>
            <mxPoint as="offset" />
            <mxPoint x="570" y="439.9999999999999" as="sourcePoint" />
            <mxPoint x="470" y="439.9999999999999" as="targetPoint" />
          </mxGeometry>
        </mxCell>
        <mxCell id="0RVh42D0NzvZq4bl3OUi-2" value="" style="edgeStyle=orthogonalEdgeStyle;rounded=0;orthogonalLoop=1;jettySize=auto;html=1;dashed=1;" edge="1" parent="1" source="0RVh42D0NzvZq4bl3OUi-3" target="gGgN93QRHOWnVbleVQWU-4">
          <mxGeometry x="0.1" y="-10" relative="1" as="geometry">
            <Array as="points">
              <mxPoint x="580" y="400" />
              <mxPoint x="580" y="400" />
            </Array>
            <mxPoint as="offset" />
            <mxPoint x="535" y="549.9999999999999" as="sourcePoint" />
            <mxPoint x="435" y="549.9999999999999" as="targetPoint" />
          </mxGeometry>
        </mxCell>
        <mxCell id="0RVh42D0NzvZq4bl3OUi-3" value="" style="points=[];perimeter=orthogonalPerimeter;rounded=0;shadow=0;strokeWidth=1;" vertex="1" parent="1">
          <mxGeometry x="520" y="390" width="10" height="10" as="geometry" />
        </mxCell>
        <mxCell id="0RVh42D0NzvZq4bl3OUi-4" value="" style="points=[];perimeter=orthogonalPerimeter;rounded=0;shadow=0;strokeWidth=1;" vertex="1" parent="1">
          <mxGeometry x="520" y="420" width="10" height="10" as="geometry" />
        </mxCell>
      </root>
    </mxGraphModel>
  </diagram>
</mxfile>
